<svg xmlns="http://www.w3.org/2000/svg" xmlns:xlink="http://www.w3.org/1999/xlink" contentStyleType="text/css" data-diagram-type="DESCRIPTION" height="194px" preserveAspectRatio="none" style="width:919px;height:194px;background:#FFFFFF;" version="1.1" viewBox="0 0 919 194" width="919px" zoomAndPan="magnify"><title>jawira/doctrine-diagram-contracts</title><defs/><g><text fill="#000000" font-family="sans-serif" font-size="14" font-weight="bold" lengthAdjust="spacing" textLength="270.3408" x="317.5304" y="22.9951">jawira/doctrine-diagram-contracts</text><g id="elem_setup"><ellipse cx="84.8218" cy="57.8616" fill="#FFFECC" rx="39.3018" ry="14.5647" style="stroke:#333333;stroke-width:2;"/><text fill="#000000" font-family="sans-serif" font-size="14" lengthAdjust="spacing" textLength="39.1563" x="63.0826" y="61.3967">setup</text></g><g id="elem_composer:install"><ellipse cx="84.8174" cy="168.7904" fill="#FFFECC" rx="78.8174" ry="18.1635" style="stroke:#333333;stroke-width:2;"/><text fill="#000000" font-family="sans-serif" font-size="14" lengthAdjust="spacing" textLength="115.6367" x="24.8755" y="172.3023">composer:install</text></g><g id="elem_qa"><ellipse cx="479.8155" cy="57.8605" fill="#FFFECC" rx="23.8355" ry="14.5236" style="stroke:#333333;stroke-width:2;"/><text fill="#000000" font-family="sans-serif" font-size="14" lengthAdjust="spacing" textLength="17.4658" x="471.0826" y="60.7072">qa</text></g><g id="elem_composer:validate"><ellipse cx="283.815" cy="168.7839" fill="#FFFECC" rx="84.835" ry="19.367" style="stroke:#333333;stroke-width:2;"/><text fill="#000000" font-family="sans-serif" font-size="14" lengthAdjust="spacing" textLength="129.9443" x="218.8429" y="171.6306">composer:validate</text></g><g id="elem_composer:audit"><ellipse cx="479.8247" cy="168.7858" fill="#FFFECC" rx="76.3447" ry="17.6689" style="stroke:#333333;stroke-width:2;"/><text fill="#000000" font-family="sans-serif" font-size="14" lengthAdjust="spacing" textLength="109.4502" x="422.0996" y="172.5334">composer:audit</text></g><g id="elem_cs:check"><ellipse cx="646.82" cy="168.7848" fill="#FFFECC" rx="55.36" ry="14.7379" style="stroke:#333333;stroke-width:2;"/><text fill="#000000" font-family="sans-serif" font-size="14" lengthAdjust="spacing" textLength="60.6963" x="613.4719" y="172.5324">cs:check</text></g><g id="elem_help"><ellipse cx="770.8245" cy="57.8606" fill="#FFFECC" rx="32.8845" ry="14.5237" style="stroke:#333333;stroke-width:2;"/><text fill="#000000" font-family="sans-serif" font-size="14" lengthAdjust="spacing" textLength="30.2627" x="755.6121" y="60.7385">help</text></g><g id="elem_map"><ellipse cx="770.8209" cy="168.7913" fill="#FFFECC" rx="33.4809" ry="14.5244" style="stroke:#333333;stroke-width:2;"/><text fill="#000000" font-family="sans-serif" font-size="14" lengthAdjust="spacing" textLength="31.1035" x="755.0139" y="171.7345">map</text></g><g id="elem_cs:fix"><ellipse cx="875.8158" cy="57.8542" fill="#FFFECC" rx="37.5858" ry="14.5473" style="stroke:#333333;stroke-width:2;"/><text fill="#000000" font-family="sans-serif" font-size="14" lengthAdjust="spacing" textLength="36.8115" x="855.8453" y="61.2233">cs:fix</text></g><!--link setup to composer:install--><g id="link_setup_composer:install"><path d="M84.82,72.6569 C84.82,92.3469 84.82,122.5269 84.82,144.1469 " fill="#FFFFFF" fill-opacity="0.00000" id="setup-to-composer:install" style="stroke:#1A85FF;stroke-width:2;"/><polygon fill="#1A85FF" points="84.82,150.1469,88.82,141.1469,84.82,145.1469,80.82,141.1469,84.82,150.1469" style="stroke:#1A85FF;stroke-width:2;"/><text fill="#000000" font-family="sans-serif" font-size="13" lengthAdjust="spacing" textLength="61.6421" x="85.82" y="115.4938">depend:1</text></g><!--link qa to composer:validate--><g id="link_qa_composer:validate"><path d="M462.77,68.3369 C429.8,86.6569 362.1145,124.2722 320.2445,147.5422 " fill="#FFFFFF" fill-opacity="0.00000" id="qa-to-composer:validate" style="stroke:#1A85FF;stroke-width:2;"/><polygon fill="#1A85FF" points="315,150.4569,324.8098,149.5811,319.3704,148.028,320.9236,142.5885,315,150.4569" style="stroke:#1A85FF;stroke-width:2;"/><text fill="#000000" font-family="sans-serif" font-size="13" lengthAdjust="spacing" textLength="61.6421" x="400.82" y="115.4938">depend:1</text></g><!--link qa to composer:audit--><g id="link_qa_composer:audit"><path d="M479.82,72.6569 C479.82,92.5769 479.82,123.3669 479.82,144.8969 " fill="#FFFFFF" fill-opacity="0.00000" id="qa-to-composer:audit" style="stroke:#1A85FF;stroke-width:2;"/><polygon fill="#1A85FF" points="479.82,150.8969,483.82,141.8969,479.82,145.8969,475.82,141.8969,479.82,150.8969" style="stroke:#1A85FF;stroke-width:2;"/><text fill="#000000" font-family="sans-serif" font-size="13" lengthAdjust="spacing" textLength="61.6421" x="480.82" y="115.4938">depend:2</text></g><!--link qa to cs:check--><g id="link_qa_cs:check"><path d="M496.31,68.6769 C510.79,77.3669 532.36,90.4869 550.82,102.4269 C577.91,119.9469 603.7064,137.6678 622.9464,151.0678 " fill="#FFFFFF" fill-opacity="0.00000" id="qa-to-cs:check" style="stroke:#1A85FF;stroke-width:2;"/><polygon fill="#1A85FF" points="627.87,154.4969,622.7707,146.0709,623.767,151.6393,618.1986,152.6356,627.87,154.4969" style="stroke:#1A85FF;stroke-width:2;"/><text fill="#000000" font-family="sans-serif" font-size="13" lengthAdjust="spacing" textLength="61.6421" x="574.82" y="115.4938">depend:3</text></g><!--link help to map--><g id="link_help_map"><path d="M770.82,72.6569 C770.82,93.6069 770.82,127.2169 770.82,148.1069 " fill="#FFFFFF" fill-opacity="0.00000" id="help-to-map" style="stroke:#D41159;stroke-width:2;"/><polygon fill="#D41159" points="770.82,154.1069,774.82,145.1069,770.82,149.1069,766.82,145.1069,770.82,154.1069" style="stroke:#D41159;stroke-width:2;"/><text fill="#000000" font-family="sans-serif" font-size="13" lengthAdjust="spacing" textLength="34.9883" x="771.82" y="115.4938">call:1</text></g><!--SRC=[ZP31JiCm44Jl-nMMUaaF4KfB9SW1gGta1u0Juh3OsyJ4yGPxI_byqgI7gBIeFbdQDxCpArOSmIVkRS0Rmrg2zPGQYrN0DjNi9Q2M2EIDae45uKu9gmyMuLOP6qYBPGyG6-ixx7NgkKR3U-ihjKKNQJ9PXy3xihSjs75G6uUwEHs_r5Otdc9KYydeDLA1aJQze0gyysPqc9Lb-LGKPq0EXi8HMWxl4lJlmjEm04aasNLpbRxDilNTgYpVqmULQ6uxZXHowwEWStELAqDTVxWyW-GBB_BVwAn1eQi5k3DM9lJYB1rpNPDk9jmIafhS6FpnDijMzmFPOdU0T9_vi7WiDrWUUHWGE5XkxS_u6RtXRsiuKmnEi_y2]--></g></svg>